<svg width="924" height="873" version="1.1" xmlns="http://www.w3.org/2000/svg" xmlns:xlink="http://www.w3.org/1999/xlink">
 <defs>
  <filter id="imagebot_10" color-interpolation-filters="sRGB">
   <feGaussianBlur stdDeviation="3.67842"/>
  </filter>
  <filter id="imagebot_7" x="-.23006" y="-.3355" width="1.4601" height="1.671" color-interpolation-filters="sRGB">
   <feGaussianBlur stdDeviation="3.38906"/>
  </filter>
  <radialGradient id="imagebot_100" cx="281.85" cy="751.84" r="407.35" gradientTransform="matrix(1.8299 -1.0702 .89684 1.5335 -905.12 -134.67)" gradientUnits="userSpaceOnUse">
   <stop stop-color="#fff" offset="0"/>
   <stop stop-color="#50adcb" offset="1"/>
  </radialGradient>
  <filter id="imagebot_58" color-interpolation-filters="sRGB">
   <feGaussianBlur stdDeviation="1.05005"/>
  </filter>
  <filter id="imagebot_98" color-interpolation-filters="sRGB">
   <feGaussianBlur stdDeviation="1.98815"/>
  </filter>
  <radialGradient id="imagebot_124" cx="225.49" cy="345.81" r="38.553" gradientTransform="translate(75.528 18.04)" gradientUnits="userSpaceOnUse">
   <stop offset="0"/>
   <stop offset="1"/>
  </radialGradient>
  <radialGradient id="imagebot_153" cx="25.053" cy="39.593" r="15.757" gradientTransform="matrix(1.6602 0 0 -2.3483 -13.556 112.59)" gradientUnits="userSpaceOnUse">
   <stop stop-color="#777" offset="0"/>
   <stop offset="1"/>
  </radialGradient>
 </defs>
 <g label="Ebene 1">
  <g stroke="#154e73" stroke-linecap="round" stroke-linejoin="round">
   <path transform="translate(1.2474 -1.8918) matrix(1 0 0 1 392.56 287.52)" d="m27.36-251.05c111.13-27.885 451.04 105.01 414.16 440.42-41.58 342.92-292.16 354.35-341.43 361.64-432.22-13.62-465.82-338.63-462.65-375.78-7.465-50.37 59.12-357.4 389.92-426.28z" fill="url(#imagebot_100)" stroke-width="7.3" label="Ebene 1"/>
   <path transform="translate(1.2474 -1.8918) matrix(1 0 0 1 392.56 287.52)" d="m327.37-75.286c49.42 47.095 54.878 114.08 53.538 179.81" fill="none" filter="url(#imagebot_98)" stroke-width="6.8" label="Ebene 1"/>
   <path transform="translate(1.2474 -1.8918) matrix(1 0 0 1 392.56 287.52)" d="m-100.93-210.65c-9.6641-22.231-35.176-33.42-59.599-34.345-10.525-7.1643-13.213 6.8917-10.275 14.438-4.5458 1.111-23.105-7.9067-9.9282 12.836-3.5585 0.0562-26.668-3.9013-7.0711 13.132-7.8371 2.9049-15.647 5.82-3.0304 16.162-7.8817 9.3283-7.3526 14.451 0 16.162-3.2004 5.9775-7.8011 12.655 0 13.132-7.2946 7.1828-2.7735 8.4578 1.0102 10.102 25.126-22.542 47.364-46.368 88.893-61.619h5e-4z" fill="none" stroke-width="7.3" label="Ebene 1"/>
   <path transform="translate(1.2474 -1.8918) matrix(1 0 0 1 392.56 287.52)" d="m-290.46-49.23c-12.99 2.0176-25.88 5.0013-38.683 7.9911-4.1453 0.56696-5.5655 5.3376-3.0801 8.6037 4.6643 11.134 8.1366 22.905 13.794 33.539 4.9924 3.3977 7.2391-3.5578 9.2857-6.8973 7.074-13.055 14.802-25.719 22.879-38.058 1.1935-2.7315-1.2829-5.7265-4.1964-5.1786l8e-4 1e-4z" fill="#618ca8" stroke-width="2.7143" label="Ebene 1"/>
   <path transform="translate(1.2474 -1.8918) matrix(1 0 0 1 392.56 287.52)" d="m211.17-254.72c-15.478 4.919-31.302 8.9024-46.585 14.353-4.1283 1.5028-3.1007 7.4895 1.1161 8.1473 18.297 7.4566 36.639 14.974 54.263 24.04 3.8637 2.1819 6.9644-2.7723 5.0112-6.0962-3.2419-12.83-6.0793-25.871-9.7809-38.517-0.55489-1.6292-2.4925-2.18-4.025-1.927l6e-4 -1e-4z" fill="#618ca8" stroke-width="2.7143" label="Ebene 1"/>
   <g transform="translate(1.2474 -1.8918) matrix(1 0 0 1 392.56 287.52)" fill="none" filter="url(#imagebot_58)" stroke-width="3.8" label="Ebene 1">
    <path d="m13.22-179.33-3.0305-28.284 37.376 27.274"/>
    <path d="m117.26-163.17 33.335-8.0812 8.0812 22.223"/>
    <path d="m230.4-149.03 45.457-2.0203v29.294"/>
    <path d="m46.987-138.89 36.365-17.173 6.0609 25.254"/>
    <path d="m-80.73-23.77-19.193-11.112 11.112 26.264"/>
    <path d="m-170.63-81.35-44.447 3.0305 28.284 36.365"/>
    <path d="m-212.05-9.63-40.406-4.0406 20.203 38.386"/>
    <path d="m-265.59 80.28-30.305 26.264 32.325 9.0914"/>
    <path d="m-135.28 30.78-28.284 11.112 31.315 12.122"/>
    <path d="m-78.71 66.14-17.173 17.173 26.264 11.112"/>
    <path d="m-137.3 111.59-49.497 9.0914 29.294 16.162"/>
    <path d="m148.58 118.66 43.437 5.0508-21.213 22.223"/>
    <path d="m256.66 57.04 34.345 14.142-20.203 17.173"/>
    <path d="m376.87 116.64 25.254 28.284-23.234 15.152"/>
    <path d="m324.34 160.08 29.294 20.203-19.193 12.122"/>
    <path d="m169.79 225.74 31.315 16.162-24.244 12.122"/>
    <path d="m65.74 113.61 28.284 20.203-28.284 4.0406"/>
    <path d="m-67.6 153.01 11.112 34.345 23.234-22.223"/>
    <path d="m38.47 195.44 31.315 32.325-2.0203-39.396"/>
    <path d="m-280.74 182.3-16.162 41.416 38.386-11.112"/>
    <path d="m-178.71 191.4-13.132 33.335 36.365-16.162"/>
    <path d="m-75.68 273.22-3.0305 37.376 26.264-26.264"/>
    <path d="m-5.98 265.14 33.335 33.335 14.142-31.315"/>
    <path d="m61.7 321.7 37.376 32.325-1.0102-34.345"/>
    <path d="m119.28 275.24 35.355 26.264 10.102-20.203"/>
    <path d="m324.34 262.11 6.0609 45.457-39.396-7.0711"/>
    <path d="m368.79 232.81 36.365 30.305-32.325 22.223"/>
    <path d="m332.42 355.04 22.223 27.274-39.396 21.213"/>
    <path d="m257.67 353.02 18.183 26.264-39.396 6.0609"/>
    <path d="m225.35 433.83 15.152 46.467-36.365-3.0304"/>
    <path d="m163.73 443.93-34.35 46.47-17.17-26.26"/>
    <path d="m31.4 444.94-39.396 33.335-17.173-38.386"/>
    <path d="m-38.3 353.02 30.305 41.416 8.0812-21.213"/>
    <path d="m-154.47 378.27-15.152 39.396h53.538"/>
    <path d="m-231.24 287.36-19.193 34.345 35.355-3.0304"/>
   </g>
  </g>
  <g fill="#618ca8" stroke="#154e73" stroke-linecap="round" stroke-linejoin="round">
   <g stroke-width="2.7143">
    <path transform="translate(1.2474 -1.8918) matrix(1 0 0 1 392.56 287.52)" d="m-166.11-247.36c-7.1606 1.138-7.2171 10.257-5.8482 15.848-4.6039 0.19773-11.13-3.1438-13.705 2.5223-1.2617 3.6461 2.6096 7.5125 2.8795 10.201-4.2119-0.31553-11.335-1.4756-12.277 4.3495-0.9306 4.1244 3.6698 6.8272 5.2906 9.6237-4.2282 1.4609-10.571 5.1746-7.4554 10.446 0.98747 2.438 4.1925 4.2139 4.6875 6.4286-2.8617 4.07-7.4634 10.446-2.4554 14.754 0.82479 1.1156 3.9104 0.75944 2.1304 2.6113-1.9658 3.5095-4.9103 9.3274 0.17623 11.627 2.0287 0.96956 1.5586 4.6918 4.3812 5.0101 5.3214 2.0342 8.8616-4.5028 12.942-7.0792 20.449-18.4 42.267-36.072 68.16-46.12 4.3149-1.0677 7.3766-6.2254 4.0179-9.9107-7.8227-12.786-21.513-20.616-35.446-25.089-6.9798-2.3361-14.318-2.9336-21.518-3.9286-1.9442-0.58609-3.8584-1.5632-5.9598-1.2946l-5.3e-4 6e-4z" label="Ebene 1"/>
    <path transform="translate(1.2474 -1.8918) matrix(1 0 0 1 392.56 287.52)" d="m-356.28 87.15c-10.342 0.97435-20.737 2.3893-31.049 3.9286-5.1192 1.8844-1.599 7.2587 0.2836 10.221 6.7619 11.394 12.695 23.368 20.185 34.288 2.9547 3.2673 7.4268-0.27534 7.2991-3.9509 2.4414-13.654 6.1762-27.113 9.5759-40.58-0.0011-3.2739-3.5884-4.398-6.2946-3.9062v-5e-4z" label="Ebene 1"/>
    <path transform="translate(1.2474 -1.8918) matrix(1 0 0 1 392.56 287.52)" d="m-360.72 228.67c-4.9219 0.64245-4.6271 7.5426-6.6964 11.116-3.3559 10.389-7.4039 20.563-9.7545 31.228 1.2923 4.9186 7.7794 5.5197 11.435 8.28 6.9122 3.2959 13.478 7.77 20.663 10.274 4.5599 0.8005 4.742-5.0626 3.0809-7.8841-6.0003-16.141-10.041-32.861-14.732-49.397-0.48182-1.8879-1.9186-3.6174-3.9955-3.6161l-5e-4 -8e-4z" label="Ebene 1"/>
    <path transform="translate(1.2474 -1.8918) matrix(1 0 0 1 392.56 287.52)" d="m-50.15-271.33c-5.1714 1.9887-2.5189 8.9851-2.751 13.344 0.88266 8.157 0.76473 16.535 2.126 24.58 3.3906 4.7855 9.6231 0.2702 13.916-0.46589 5.9918-2.2415 12.532-3.5095 18.048-6.7662 3.1922-4.9492-3.7643-7.8266-6.3839-11.004-7.7069-6.5078-14.72-14.081-23.103-19.665-0.61157-0.15571-1.2377-0.12226-1.8527-0.02232l6e-4 -5.9e-4z" label="Ebene 1"/>
    <path transform="translate(1.2474 -1.8918) matrix(1 0 0 1 392.56 287.52)" d="m92.67-283.92c-11.771 7.4335-24.224 14.539-35.603 22.768-2.9889 3.9672 1.5638 7.0821 5.4911 6.5402 14.762 0.02954 29.394 1.7622 43.906 4.3304 4.4645-0.16716 4.4204-5.7021 2.3661-8.4821-3.9489-8.1615-7.1826-16.845-12.344-24.33-1.1157-1.1775-2.3668-0.85161-3.817-0.82589l8e-4 -6.1e-4z" label="Ebene 1"/>
    <path transform="translate(1.2474 -1.8918) matrix(1 0 0 1 392.56 287.52)" d="m345.31-176.11c-15.312 2.5144-30.654 5.2497-45.737 8.8393-4.6392 3.0678 0.0252 8.092 3.1267 10.099 11.73 9.5912 22.552 20.207 33.838 30.191 3.0338 2.6136 7.2591-0.5583 6.7634-4.1518 1.9558-13.839 4.4847-27.611 6.0491-41.496-0.28371-2.0492-1.9119-3.6933-4.0402-3.4821v6e-4z" label="Ebene 1"/>
    <path transform="translate(1.2474 -1.8918) matrix(1 0 0 1 392.56 287.52)" d="m446.51 142.87c-3.183 4.6192-1.5636 10.93-2.4983 16.226-0.38885 10.406-1.7886 20.818-2.1 31.184 1.436 4.8029 7.0746 2.6388 9.6195 0.23996 7.6434-5.3589 16.006-10.055 22.979-16.153 2.0328-4.4975-4.0576-7.62-5.9694-11.23-5.8276-6.888-11.194-14.297-17.768-20.469-1.41-1.0236-2.8323-0.42835-4.2634 0.20089l6e-4 0.00115z" label="Ebene 1"/>
    <path transform="translate(1.2474 -1.8918) matrix(1 0 0 1 392.56 287.52)" d="m428.43 271.19c-3.9924 3.708-4.0675 9.9602-6.0741 14.814-2.113 8.2907-5.5045 16.215-7.3411 24.561 0.78653 5.2626 6.4718 3.0556 9.5598 1.4482 5.7123-2.8462 12.477-4.1772 17.471-8.1669 1.553-5.3804-2.0716-10.747-3.1714-15.955-2.253-5.4551-2.993-11.919-6.8955-16.456-0.97123-0.48242-2.5288-0.68476-3.5491-0.24553l4e-4 2.3e-4z" label="Ebene 1"/>
    <path transform="translate(1.2474 -1.8918) matrix(1 0 0 1 392.56 287.52)" d="m394.42 363.25c-5.1435 2.1762-5.9267 8.8678-9.0972 12.984-5.365 10.163-12.017 19.584-17.733 29.538-0.68953 5.2411 5.4317 4.9222 8.9286 4.5759 11.191-0.99979 22.594-0.42847 33.661-2.1205 5.3255-2.0457 1.3836-8.1663 0.29246-11.765-4.2232-10.727-7.5584-21.962-12.748-32.23-0.85915-0.83996-2.1334-1.1636-3.3036-0.98214l-2.6e-4 -2.6e-4z" label="Ebene 1"/>
    <path transform="translate(1.2474 -1.8918) matrix(1 0 0 1 392.56 287.52)" d="m328.17 454.27c-6.9312 3.5807-11.624 10.295-17.86 14.934-7.473 7.0631-16.571 12.278-23.77 19.62-1.9974 3.4833 2.5443 6.9421 6.0938 5.9375 11.719-0.89501 23.467-1.7041 35.134-3.0804 4.8182-2.3438 2.55-8.8595 3.603-13.366 0.25624-6.9223 1.3557-13.852 1.464-20.741-0.35642-2.148-2.507-3.7052-4.6652-3.3036l4e-4 -5e-4z" label="Ebene 1"/>
    <path transform="translate(1.2474 -1.8918) matrix(1 0 0 1 392.56 287.52)" d="m164.62 540.83c-17.864 3.6548-35.866 6.5315-53.884 9.2857-3.9545 0.046-6.1272 5.4537-2.3661 7.6116 11.931 9.3827 23.985 19.001 36.763 27.299 5.4341 1.0688 6.3249-6.126 8.8302-9.3634 5.1887-10.196 10.96-20.118 15.366-30.659 0.38683-2.6348-2.175-4.7743-4.7098-4.1741l7e-4 2e-4z" label="Ebene 1"/>
    <path transform="translate(1.2474 -1.8918) matrix(1 0 0 1 392.56 287.52)" d="m-76.98 524.25c-4.1728 0.16102-4.5014 5.6351-1.5625 7.7232 9.9105 12.537 19.702 25.221 30.357 37.098 4.8917 2.3882 7.673-3.959 11.066-6.306 6.4223-6.5925 13.369-12.781 19.18-19.899 1.6577-4.4661-3.7901-5.5002-6.9643-5.8259-17.185-3.5972-34.109-8.4937-51.138-12.79l-0.29018-0.0223-0.64732 0.0223-7e-4 -3e-4z" label="Ebene 1"/>
    <path transform="translate(1.2474 -1.8918) matrix(1 0 0 1 392.56 287.52)" d="m-279.08 398.62c-2.803 4.2829-0.37904 9.8715-0.88534 14.687 0.61436 8.3449 0.23708 16.886 1.5996 25.112 3.1882 4.0718 9.0753 1.1699 13.413 1.5743 7.0028-0.64584 14.051-1.0348 21.029-1.8199 4.7439-2.3955 1.045-7.1741-1.5553-9.5656-9.6948-9.9729-19.317-19.969-28.98-29.943-1.4313-1.2351-3.0872-0.84743-4.6205-0.0446l-4.6e-4 -2e-4z" label="Ebene 1"/>
   </g>
   <path transform="translate(1.2474 -1.8918) matrix(1 0 0 1 392.56 287.52)" d="m443-66.966c-27.99 0.28139-53.654 12.965-77.634 26.138-4.4383 1.9331-2.5862 7.0279-0.82589 10.223 11.972 31.198 16.637 64.658 19.665 97.902 1.1006 8.0867 1.015 16.41 2.9911 24.33 2.6726 5.0253 8.839 0.057 12.852-1.1462 25.848-10.627 53.183-22.778 81.835-18.474 6.4422 0.49663 12.585 3.4936 18.996 3.2589 4.9548-3.2216 12.469-4.5162 14.933-10.469 0.31861-5.4576-6.6139-5.6826-10.424-6.942-2.9346-0.8001-6.3288-0.92222-9.0179-1.9866 3.8575-2.1177 11.194-3.3395 10.246-9.2857-1.5122-4.962-8.1684-5.9668-11.094-8.9732 3.9292-2.0775 10.841-4.6968 8.7054-10.424-1.6832-4.3757-6.7253-7.2192-8.6161-10.893 3.5135-3.3968 10.231-6.2009 9.375-12.031-2.2489-5.7189-8.7091-8.1559-12.723-12.098 0.63756-5.3638 6.8672-8.8303 6.2723-14.353-2.3666-4.932-9.724-2.6479-13.125-5.0446 1.5692-4.4318 6.8225-8.0895 5.4241-13.17-3.3557-4.1685-9.575-1.8123-14.196-2.8125 5.9008-2.7437 13.786-3.8422 17.411-9.8661 1.7404-5.8869-5.5329-8.2884-9.933-9.2188-13.454-3.0873-27.289-4.9234-41.116-4.6652l-0.00101 1e-3z" stroke-width="1.9388" label="Ebene 1"/>
  </g>
  <path transform="translate(1.2474 -1.8918) matrix(1 0 0 1 392.56 287.52)" d="m362.88-38.344c38.403-20.297 67.437-36.006 119.2-24.244 12.693-0.13909 28.145 11.698-4.0406 20.203 18.183-0.67344 20.54 0.67344 9.0914 16.162 27.354 2.5055 9.0246 9.3606 7.0711 19.193 18.334 11.18 17.004 15.756 3.0305 24.244 7.1717 5.7242 18.519 15.489 0 21.213 16.672 7.4222 16.662 13.454 1.0102 18.183 28.462 3.8447 25.692 10.977 3.0305 20.203-42.992-13.859-76.864 5.7238-112.13 20.203v1.0102c-4.96-45.456-5.99-90.913-26.26-136.37l-0.0031-2e-4z" fill="none" stroke="#154e73" stroke-linecap="round" stroke-linejoin="round" stroke-width="7.3" label="Ebene 1"/>
  <g transform="translate(1.2474 -1.8918) matrix(1 0 0 1 393.27 286.81)" stroke="#154e73" stroke-linecap="round" stroke-linejoin="round" label="Ebene 1">
   <g fill="none" stroke-width="4.7">
    <path d="m-50.009-233.63-3.0305-41.416 37.376 33.335"/>
    <path d="m50.098-256.18 45.457-28.284 17.173 36.365"/>
    <path d="m156.24-237.68 60.609-18.183 12.122 48.487"/>
    <path d="m294.48-165.78 54.548-10.102-8.0812 52.528"/>
    <path d="m-286.21-49.44-47.477 10.102 16.162 41.416"/>
    <path d="m-351.52 87.42-39.396 5.0508 27.274 47.477"/>
    <path d="m444.43 137.89c5.8034 3.0263 30.736 35.315 30.736 35.315l-32.499 22.193"/>
    <path d="m429.67 263.88 13.132 39.396-29.294 12.122"/>
    <path d="m396.41 362.11 17.173 45.457-46.467 2.0203"/>
    <path d="m-361.73 224.73-15.152 47.477 36.365 19.193"/>
    <path d="m-279.73 396.46 2.0203 43.437 38.386-3.0305"/>
    <path d="m-84.773 522.83 38.386 47.477 28.284-28.284"/>
    <path d="m103.12 552.78 44.447 33.335 23.234-45.457"/>
    <path d="m279.82 494.79 49.497-4.0406 3.0305-39.396"/>
   </g>
   <g filter="url(#imagebot_10)" opacity=".88333" stroke-width="2.9">
    <g transform="translate(146)" fill="none" stroke="#154e73" stroke-linecap="round" stroke-linejoin="round" stroke-width="2.9">
     <path d="m225.84-6.5956c28.59-31.72 66.468-37.085 100.01-36.365"/>
     <path d="m230.89 13.608c29.833-29.638 69.656-38.901 107.08-31.315"/>
     <path d="m236.95 45.932c29.28-30.565 66.93-30.48 104.04-32.324"/>
     <path d="m237.96 66.135c17.45-9.966 17.56-35.286 95.96-23.233"/>
     <path d="m220.79-27.809c25.382-21.46 61.43-34.118 100.01-34.345"/>
    </g>
   </g>
  </g>
  <path transform="translate(1.2474 -1.8918) matrix(1 0 0 1 392.56 287.52)" d="m-154.35-231.27c12.927 7.2246 32.09 9.7729 35.355 24.244m-60.609-19.193c13.98 9.7992 35.983 9.569 40.406 31.315m-48.487-3.0305c8.6218 6.0698 15.254 2.19 26.264 20.203l2.0203 1.0102" fill="none" filter="url(#imagebot_7)" stroke="#154e73" stroke-linecap="round" stroke-linejoin="round" stroke-width="3.4" label="Ebene 1"/>
  <title>Ebene 1</title>
  <path transform="matrix(1.6105 .53309 -.53309 1.6105 249.54 -497.32)" d="m240.9 363.85c0 19.718-15.985 35.703-35.703 35.703-19.718 0-35.703-15.985-35.703-35.703 0-19.718 15.985-35.703 35.703-35.703 19.718 0 35.703 15.985 35.703 35.703z" fill="#fff" stroke="#000" stroke-opacity=".61497" stroke-width="5.7" label="Capa 1"/>
  <path transform="matrix(1.6105 .53309 -.53309 1.6105 249.54 -497.32)" d="m336.73 363.85c0 19.718-15.985 35.703-35.703 35.703-19.718 0-35.703-15.985-35.703-35.703 0-19.718 15.985-35.703 35.703-35.703 19.718 0 35.703 15.985 35.703 35.703z" fill="#fff" stroke="url(#imagebot_124)" stroke-opacity=".61497" stroke-width="5.7" label="Capa 1"/>
  <path transform="matrix(1.6339 .54081 -.54081 1.6339 182.19 -414.39)" d="m244.29 306.54c0 6.7458-5.8051 12.214-12.966 12.214s-12.966-5.4685-12.966-12.214 5.805-12.214 12.966-12.214 12.966 5.4685 12.966 12.214z" opacity=".83857" label="Capa 1"/>
  <path transform="matrix(1.6339 .54081 -.54081 1.6339 337.12 -363.11)" d="m244.29 306.54c0 6.7458-5.8051 12.214-12.966 12.214s-12.966-5.4685-12.966-12.214 5.805-12.214 12.966-12.214 12.966 5.4685 12.966 12.214z" opacity=".83857" label="Capa 1"/>
  <path transform="rotate(21.206 426.12 342.54) matrix(6.0625 0 0 6.0625 258.46 172.19)" d="m40.225 33.055c-4.9454-7.8227-7.3876-10.579-12.686-10.579-5.1813 0-8.6324 3.1712-12.451 11.243 4.5599-4.4126 7.0519-6.8561 12.099-6.8561 4.9298 0 7.6381 1.9739 13.038 6.1919z" fill="url(#imagebot_153)" label="Layer 1"/>
 </g>
</svg>
